<svg xmlns="http://www.w3.org/2000/svg" width="1200" height="720" viewBox="0 0 1200 720">
  <defs>
    <linearGradient id="bg" x1="0" y1="0" x2="1" y2="1"><stop offset="0" stop-color="#111916"/><stop offset=".55" stop-color="#1e3029"/><stop offset="1" stop-color="#0c1210"/></linearGradient>
    <linearGradient id="paint" x1="0" y1="0" x2="1" y2="1"><stop offset="0" stop-color="#4aa3ff"/><stop offset=".45" stop-color="#0f4f9a"/><stop offset="1" stop-color="#050706"/></linearGradient>
    <linearGradient id="glass" x1="0" y1="0" x2="1" y2="1"><stop offset="0" stop-color="#ffffffa8"/><stop offset="1" stop-color="#7aa7b844"/></linearGradient>
    <filter id="shadow"><feDropShadow dx="0" dy="28" stdDeviation="22" flood-color="#000" flood-opacity=".45"/></filter>
  </defs>
  <rect width="1200" height="720" rx="54" fill="url(#bg)"/>
  <circle cx="1015" cy="118" r="225" fill="#ec1c24" opacity=".10"/>
  <ellipse cx="600" cy="565" rx="420" ry="80" fill="#ffffff12"/>
  <g transform="translate(230 140)" filter="url(#shadow)">
    <path d="M78 318h92l64-91h266l92 91h76c34 0 62 28 62 62v18H58v-28c0-29 6-52 20-52Z" fill="url(#paint)"/>
    <path d="M255 232h226l72 86H190l65-86Z" fill="url(#glass)"/>
    <path d="M154 323h432" stroke="#ffffff44" stroke-width="8" stroke-linecap="round"/>
    <circle cx="218" cy="398" r="64" fill="#101614" stroke="#f1f5f1" stroke-opacity=".45" stroke-width="13"/>
    <circle cx="584" cy="398" r="64" fill="#101614" stroke="#f1f5f1" stroke-opacity=".45" stroke-width="13"/>
    <circle cx="218" cy="398" r="18" fill="#edf1ee"/><circle cx="584" cy="398" r="18" fill="#edf1ee"/>
  </g>
  <rect x="74" y="72" width="245" height="48" rx="24" fill="#ec1c24"/>
  <text x="96" y="104" fill="#fff" font-family="Arial, sans-serif" font-size="23" font-weight="900">FORD</text>
  <text x="72" y="178" fill="#fff" font-family="Arial, sans-serif" font-size="72" font-weight="900" letter-spacing="-3">ECOSPORT</text>
  <text x="76" y="220" fill="#aeb9b4" font-family="Arial, sans-serif" font-size="20" font-weight="700">3D STYLE · STANDARD BACKGROUND · SUV</text>
</svg>
