<svg xmlns="http://www.w3.org/2000/svg" width="1200" height="720" viewBox="0 0 1200 720">
  <defs>
    <linearGradient id="bg" x1="0" y1="0" x2="1" y2="1"><stop offset="0" stop-color="#090d12"/><stop offset=".55" stop-color="#17202b"/><stop offset="1" stop-color="#05070a"/></linearGradient>
    <linearGradient id="paint" x1="0" y1="0" x2="1" y2="1"><stop offset="0" stop-color="#f8fafc"/><stop offset=".45" stop-color="#8b98a8"/><stop offset="1" stop-color="#111827"/></linearGradient>
    <linearGradient id="glass" x1="0" y1="0" x2="1" y2="1"><stop offset="0" stop-color="#ffffffaa"/><stop offset="1" stop-color="#6ea2c844"/></linearGradient>
    <filter id="shadow"><feDropShadow dx="0" dy="28" stdDeviation="24" flood-color="#000" flood-opacity=".55"/></filter>
  </defs>
  <rect width="1200" height="720" rx="54" fill="url(#bg)"/>
  <circle cx="1010" cy="120" r="230" fill="#ed111c" opacity=".13"/>
  <ellipse cx="600" cy="570" rx="430" ry="78" fill="#ffffff12"/>
  <g transform="translate(232 148)" filter="url(#shadow)">
    <path d="M84 304h98l64-78h244l82 78h78c33 0 59 26 59 59v22H60v-27c0-31 8-54 24-54Z" fill="url(#paint)"/>
    <path d="M268 229h202l65 75H210l58-75Z" fill="url(#glass)"/>
    <path d="M164 311h405" stroke="#ffffff55" stroke-width="8" stroke-linecap="round"/>
    <circle cx="225" cy="386" r="63" fill="#10151b" stroke="#e5e7eb" stroke-opacity=".55" stroke-width="14"/>
    <circle cx="562" cy="386" r="63" fill="#10151b" stroke="#e5e7eb" stroke-opacity=".55" stroke-width="14"/>
    <circle cx="225" cy="386" r="18" fill="#f8fafc"/><circle cx="562" cy="386" r="18" fill="#f8fafc"/>
  </g>
  <rect x="74" y="72" width="260" height="48" rx="24" fill="#ed111c"/>
  <text x="96" y="104" fill="#fff" font-family="Arial, sans-serif" font-size="23" font-weight="900">JAS MOTORS</text>
  <text x="72" y="178" fill="#fff" font-family="Arial, sans-serif" font-size="72" font-weight="900" letter-spacing="-3">VEHICLE</text>
  <text x="76" y="220" fill="#aeb9c4" font-family="Arial, sans-serif" font-size="20" font-weight="700">STANDARD IMAGE · NO LOGO · DEFAULT</text>
</svg>
