<svg xmlns="http://www.w3.org/2000/svg" width="900" height="540" viewBox="0 0 900 540">
  <defs>
    <linearGradient id="bg" x1="0" x2="1" y1="0" y2="1"><stop offset="0" stop-color="#0d1311"/><stop offset="1" stop-color="#203830"/></linearGradient>
    <filter id="shadow" x="-20%" y="-20%" width="140%" height="140%"><feDropShadow dx="0" dy="24" stdDeviation="18" flood-color="#000" flood-opacity=".38"/></filter>
  </defs>
  <rect width="900" height="540" rx="42" fill="url(#bg)"/>
  <circle cx="730" cy="108" r="170" fill="#00897b" opacity=".18"/>
  <rect x="56" y="48" width="218" height="42" rx="21" fill="#00897b" opacity=".92"/>
  <text x="76" y="76" fill="#fff" font-family="Arial, sans-serif" font-size="20" font-weight="900">HONDA</text>
  <text x="54" y="148" fill="#fff" font-family="Arial, sans-serif" font-size="58" font-weight="900" letter-spacing="-2">CR-V</text>
  <text x="58" y="183" fill="#aeb9b4" font-family="Arial, sans-serif" font-size="18" font-weight="700">US MARKET · SUV · MODEL MATCHED IMAGE</text>
  <g transform="translate(116 96)" fill="#00897b" filter="url(#shadow)"><path d="M72 284h72l48-77h241l66 77h43c31 0 56 25 56 56v18H54v-25c0-27 7-49 18-49Z"/><path d="M218 208h190l51 76H172l46-76Z" fill="#ffffff5c"/><path d="M183 284h300" stroke="#ffffff30" stroke-width="8" stroke-linecap="round"/></g>
  <g transform="translate(116 96)">
    <circle cx="198" cy="361" r="53" fill="#111816" stroke="#fff" stroke-opacity=".38" stroke-width="11"/>
    <circle cx="488" cy="361" r="53" fill="#111816" stroke="#fff" stroke-opacity=".38" stroke-width="11"/>
    <circle cx="198" cy="361" r="15" fill="#edf1ee"/><circle cx="488" cy="361" r="15" fill="#edf1ee"/>
  </g>
  <text x="60" y="486" fill="#ffffff" opacity=".24" font-family="Arial, sans-serif" font-size="96" font-weight="900">HONDA</text>
</svg>
